<?xml version="1.0" encoding="UTF-8" standalone="no"?>
<!-- Created with Inkscape (http://www.inkscape.org/) -->

<svg
   version="1.1"
   id="svg1"
   width="1024"
   height="1024"
   viewBox="0 0 1024 1024"
   sodipodi:docname="Tasty Pinch SVG.svg"
   inkscape:export-filename="Tasty Pinch Corrected 300dpi.png"
   inkscape:export-xdpi="300"
   inkscape:export-ydpi="300"
   inkscape:version="1.4.2 (f4327f4, 2025-05-13)"
   xmlns:inkscape="http://www.inkscape.org/namespaces/inkscape"
   xmlns:sodipodi="http://sodipodi.sourceforge.net/DTD/sodipodi-0.dtd"
   xmlns="http://www.w3.org/2000/svg"
   xmlns:svg="http://www.w3.org/2000/svg">
  <defs
     id="defs1" />
  <sodipodi:namedview
     id="namedview1"
     pagecolor="#ffffff"
     bordercolor="#cccccc"
     borderopacity="1"
     inkscape:showpageshadow="0"
     inkscape:pageopacity="1"
     inkscape:pagecheckerboard="0"
     inkscape:deskcolor="#d1d1d1"
     inkscape:zoom="0.83789062"
     inkscape:cx="692.81119"
     inkscape:cy="354.46154"
     inkscape:window-width="1920"
     inkscape:window-height="1051"
     inkscape:window-x="-9"
     inkscape:window-y="-9"
     inkscape:window-maximized="1"
     inkscape:current-layer="g1" />
  <g
     inkscape:groupmode="layer"
     inkscape:label="Image"
     id="g1">
    <path
       style="fill:#802328;stroke:none"
       d="m 784.8718,318.86947 c 1.00708,10.79944 1.12958,34.48694 15.00769,37.17426 6.37183,1.23382 12.38416,-2.9737 15.5285,-8.18451 5.65253,-9.36737 7.8418,-22.30097 9.46378,-32.98975 h 1 c 0.056,14.00067 2.8872,28.02924 3.8638,42 0.957,13.6897 -0.4462,27.3584 -0.8748,41 -0.5896,18.76642 -5.4113,37.38855 -7.55013,56 -2.21502,19.27478 -0.0465,39.25604 10.20373,56 3.1623,5.16577 7.0238,10.58875 12.3573,13.70496 2.734,1.59747 6.3727,2.42627 8.0578,-0.99744 3.7603,-7.64026 -5.1337,-15.20264 -8.9603,-20.70752 -6.4728,-9.3114 -10.0036,-22.67157 -9.523,-34 1.7579,-41.43616 12.7137,-83.43927 20.8257,-124 2.4632,-12.31616 5.1171,-24.60992 7.1836,-37 0.9293,-5.5722 2.992,-12.37982 1.7317,-17.99725 -3.4236,-15.25946 -23.188,-10.75959 -33.3154,-7.00275 -0.4832,-13.08008 -4.7608,-28.57642 -11.18094,-39.99158 -6.10767,-10.85956 -16.09967,-8.7948 -23.09131,-0.004 -1.99188,2.50458 -3.47107,5.07294 -4.72772,7.99512 -1.84552,-7.2923 -1.23077,-14.72333 -3.70288,-22 -0.95178,-2.80164 -2.11121,-5.56586 -3.97638,-7.89508 -9.59821,-11.98621 -22.47803,-2.77789 -27.78119,7.8952 -10.79437,21.72449 -12.7912,48.21948 -4.2796,70.99988 5.71295,15.2901 17.10492,25.77509 33.74005,20 m -13.1062,-89.67688 c 5.48407,-0.73047 5.67908,13.28168 5.9884,16.67688 1.42884,15.6825 2.01325,31.35486 3.94061,47 0.63978,5.19324 2.64643,13.70374 -4.85235,14.646 -7.46289,0.9378 -12.3523,-7.72767 -14.3963,-13.646 -5.17572,-14.98596 -4.93817,-32.86646 -0.50653,-48 1.31817,-4.50134 4.10772,-15.91522 9.82617,-16.67688 m 36.1062,18.67734 c 12.86224,30.89172 9.79352,65.69818 -4,96 -5.32214,-7.46613 -5.37384,-18.1745 -6.43628,-27 -1.32312,-10.99121 -2.67303,-21.98602 -3.77356,-33 -0.59808,-5.98572 -1.90393,-13.07727 -0.29639,-19 1.81385,-6.68292 8.57441,-13.81104 14.50623,-17 m -185,197 h -1 l -27,-59 h -139 v 29 h 35 v 126 h 33 v -127 l 35,1 14.67786,1.25977 5.65667,8.74041 8.41584,16.99982 13.75012,30 0.49951,24 v 45 h 32 v -43 l 0.50507,-22 9.2453,-20 16.24963,-33 c 9.33081,22.32965 23.14587,40.45618 42,55.71661 20.35931,16.47876 46.58502,30.91675 57,56.28339 h 2 c 3.40497,-13.53693 -6.48474,-25.89264 -14.26447,-36 -19.31005,-25.08746 -50.44281,-39.29926 -65.37274,-68 -2.81164,-5.40503 -8.17517,-13.78961 -5.87237,-20 2.15808,-5.82013 7.15216,-10.21442 9.35931,-15.99725 0.79944,-2.09461 1.4671,-5.13221 -0.1178,-7.05475 -1.82141,-2.20947 -5.31726,-1.50055 -7.33056,0 -4.02075,2.99682 -5.49201,8.65741 -9.40137,12.052 l -3.53912,-19 0.75421,-17 -9.59918,-15 -7.61591,-16 c 19.09534,-3.4198 39.81958,14.61255 45.43011,32 1.99347,6.1778 1.47809,12.74249 3.2389,19 3.26403,11.59979 13.8847,20.8172 26.33099,20.2865 14.90784,-0.63562 27.90729,-13.84082 26.56006,-29.2865 -0.75208,-8.62268 -5.35443,-15.64813 -10.89954,-22 -13.43213,-15.38641 -30.12188,-34.48877 -49.66052,-41.89368 -13.75543,-5.21313 -28.7522,-4.5841 -43,-7.10632 21.45099,-8.47302 45.24127,-12.35345 68,-9.13947 5.60297,0.79126 20.75977,5.68708 24.04089,-1.22503 1.3816,-2.91046 0.49219,-7.1507 -2.46447,-8.69849 -2.4939,-1.30548 -5.85144,-1.11127 -8.57642,-1.57861 -4.71777,-0.80914 -9.31927,-2.151 -14,-3.13336 -20.78918,-4.3631 -41.29767,1.92065 -61,8.13134 -6.03101,1.90113 -17.0376,3.39545 -19.93665,9.83045 -3.93115,8.72607 0.2475,22.17615 2.65418,30.81317 2.48035,8.90155 6.27673,17.94092 7.95782,27 0.85975,4.63281 0.007,9.35944 0.9068,14 1.17151,6.04352 3.64301,11.78998 4.00934,18 0.44721,7.58112 -4.11389,14.45905 -7.3363,21 -5.84961,11.87378 -12.02265,23.84558 -17.25519,36 m 227.99997,-152 -9,58 c -1.4201,-4.19189 -0.8444,-8.63196 -1.3227,-13 -1.027,-9.37787 -2.6594,-18.79132 -4.6774,-28 -0.8555,-3.90381 -3.8598,-10.60602 -1.5359,-14.35492 3.1231,-5.03821 11.7975,-3.66119 16.536,-2.64508 m -203.99997,24 c 6.52679,-1.89691 14.53589,1.82446 21,3.22235 7.6427,1.65277 15.95935,3.14423 23,6.6424 14.99976,7.45263 29.0899,22.29309 39.57996,35.13525 8.2738,10.12897 8.69415,28.95386 -8.57996,28.90057 -17.75403,-0.0547 -13.70477,-23.17926 -20.80627,-33.90057 -3.68903,-5.5694 -8.50574,-10.09003 -12.97651,-15 -6.2846,-6.90198 -12.80096,-14.29968 -21.21722,-18.67181 -6.31165,-3.27881 -13.45599,-3.67994 -20,-6.32819 m -80,42 c 9.31171,-6.07556 22.71722,-16.16888 28,-26 l -1,-1 c -7.72205,3.245 -13.79547,9.33093 -19.99652,14.823 -4.07617,3.61011 -7.71491,6.41943 -7.00348,12.177 m -181,131 -30,3 c 0.2897,15.21808 4.50598,30.57367 17.00259,40.2533 24.19623,18.74188 68.9661,11.98144 78.93851,-19.2533 9.05011,-28.34607 -10.65497,-48.81287 -32.9411,-62.92816 -8.89636,-5.63465 -23.39908,-11.70276 -27.6153,-22.09039 -4.24224,-10.45179 8.77244,-17.63849 17.61515,-14.92884 9.91568,3.03845 11.63751,12.31549 14.00015,20.94739 l 31,-1 c -0.1398,-15.09125 -5.32938,-30.75848 -18.00754,-39.90015 -21.9003,-15.79132 -63.16318,-11.34802 -72.59237,16.90015 -5.09208,15.25488 -2.3924,32.63013 8.00628,44.99243 5.67331,6.74463 13.19831,11.67066 20.59363,16.31946 9.70618,6.10144 25.66086,12.65131 29.07214,24.68884 3.51374,12.39905 -10.71069,19.57697 -21.07199,16.19593 -9.95962,-3.24994 -13.09598,-13.89783 -14.00015,-23.19666 m -233,-104 v 29 l 19.99998,9.2e-4 9.17836,1.82074 1.82076,9.17834 9e-4,23 v 92 h 30 v -127 l 31,1 v -29 h -92 m 81,155 19.99997,-1.8e-4 c 2.80826,-0.004 6.83508,0.57879 9.21948,-1.25959 2.59891,-2.00378 2.91971,-6.7835 3.65592,-9.74023 1.41272,-5.67358 3.0126,-11.3045 4.33099,-17 0.7077,-3.05737 1.11594,-6.94623 3.09668,-9.49854 2.07419,-2.67272 5.64517,-2.47009 8.69769,-2.49798 7.58435,-0.0693 15.41422,-0.51093 22.97721,0.0665 6.49536,0.49591 7.07629,5.52972 8.4017,10.93005 1.89047,7.70258 2.66055,19.95135 7.2059,26.49854 1.89371,2.72766 5.46213,2.47094 8.41538,2.49798 7.33178,0.067 14.66699,0.003 21.99908,0.003 l -11.2869,-44 -21.60846,-77 -9.10464,-34 h -23 l -10.32214,1.25977 -4.57691,11.74023 -7.99817,29 -30.10278,113 m 59,-121 12,53 h -25 l 8.12518,-35 4.87482,-18 m 462.33331,109.66669 0.33338,0.66662 -0.33338,-0.66662 m 1,3 0.33338,0.66662 -0.33338,-0.66662 M 682.8718,702.86947 h -39 c -0.31604,8.52576 -3.17108,17.6217 -9.185,23.90015 -8.33081,8.69732 -23.5083,9.76818 -32.76635,1.77569 -11.72559,-10.12274 -13.52137,-29.16974 -14.00831,-43.67584 -0.50232,-14.96368 -0.3363,-30.10272 0.92212,-45 0.82068,-9.71545 2.35865,-20.7616 8.00367,-28.99231 8.92309,-13.01031 27.06744,-14.55115 37.76586,-2.92139 6.49567,7.06116 8.93201,17.56012 9.26801,26.9137 h 38 c 1.62183,-19.33112 -4.0788,-40.99762 -18.08063,-54.91443 -20.10998,-19.98791 -59.04358,-21.69043 -82.91937,-7.58288 -21.43597,12.66589 -30.70465,37.94799 -33.67981,61.49731 -1.39172,11.01587 -1.32019,21.9162 -1.32019,33 0,28.57178 1.65472,61.22992 21.36328,83.99243 23.19507,26.78937 73.27203,28.5351 97.40003,1.98828 12.89404,-14.18664 15.02093,-31.96734 18.23669,-49.98071 m -530,-137 v 202 h 42 v -69 c 22.64761,0 48.19055,3.18005 68,-10.18488 33.29633,-22.46417 32.65643,-85.91656 1.99927,-110.21948 C 249.18,566.02633 229.87848,565.86947 210.8718,565.86947 h -58 m 155,0 v 202 l 41,-1 -0.15909,-38.21741 0.14804,-62.80114 -0.12845,-41.98145 0.004,-42 -1.1247,-14.17908 -10.7398,-1.82092 h -29 m 69,0 v 202 h 39 v -129 h 1 l 15.24966,33 32.41504,63 11.08564,22 6.00439,9.74023 12.24527,1.25977 h 30 v -202 h -41 v 118 l -42.75034,-85 -11.00015,-22 -6.5661,-9.74023 -13.68341,-1.25977 h -32 m 328,0 v 202 h 40 v -86 h 57 v 86 h 41.99997 v -202 H 801.8718 v 82 h -57 v -82 h -40 m -510,102 v -70 c 13.23059,0 29.59303,-2.48083 40.99173,5.76038 16.33881,11.81292 17.5806,48.59362 -0.0111,59.99664 -11.16547,7.23761 -28.30863,4.24298 -40.98063,4.24298 z"
       id="path1" />
  </g>
</svg>
