<?xml version="1.0" encoding="UTF-8" standalone="no"?>
<!-- Created with Inkscape (http://www.inkscape.org/) -->

<svg
   version="1.1"
   id="svg1"
   width="1024"
   height="1024"
   viewBox="0 0 1024 1024"
   sodipodi:docname="Tasty Pinch.svg"
   inkscape:version="1.4.2 (f4327f4, 2025-05-13)"
   xmlns:inkscape="http://www.inkscape.org/namespaces/inkscape"
   xmlns:sodipodi="http://sodipodi.sourceforge.net/DTD/sodipodi-0.dtd"
   xmlns="http://www.w3.org/2000/svg"
   xmlns:svg="http://www.w3.org/2000/svg">
  <defs
     id="defs1" />
  <sodipodi:namedview
     id="namedview1"
     pagecolor="#ffffff"
     bordercolor="#000000"
     borderopacity="0.25"
     inkscape:showpageshadow="2"
     inkscape:pageopacity="0.0"
     inkscape:pagecheckerboard="0"
     inkscape:deskcolor="#d1d1d1"
     inkscape:zoom="0.34"
     inkscape:cx="580.88235"
     inkscape:cy="344.11765"
     inkscape:window-width="1366"
     inkscape:window-height="698"
     inkscape:window-x="-6"
     inkscape:window-y="-6"
     inkscape:window-maximized="1"
     inkscape:current-layer="g1" />
  <g
     inkscape:groupmode="layer"
     inkscape:label="Image"
     id="g1">
    <path
       style="fill:#761e1a;fill-opacity:1;stroke:none;stroke-width:0;stroke-linecap:round;stroke-linejoin:miter;stroke-dasharray:none;stroke-opacity:1"
       d="m 634.47454,827.00433 c -3.575,-0.47291 -9.65,-1.83889 -13.5,-3.03552 -3.85,-1.19663 -10.15,-3.80044 -14,-5.78625 -4.4777,-2.30954 -9.5476,-6.14759 -14.07,-10.65133 -4.4451,-4.42672 -8.5843,-9.82533 -11.1488,-14.54078 -2.2434,-4.125 -5.2457,-11.1 -6.6717,-15.5 -1.4261,-4.4 -3.2652,-11.26128 -4.0869,-15.24729 -0.8217,-3.986 -2.0219,-12.536 -2.6672,-19 -0.6452,-6.46399 -1.1703,-24.57771 -1.1667,-40.25271 0,-21.07706 0.4412,-31.65821 1.6757,-40.6258 0.918,-6.66919 2.5693,-15.66919 3.6694,-20 1.1001,-4.33081 4.2133,-12.3742 6.9182,-17.8742 3.4707,-7.05714 6.8494,-12.10683 11.4811,-17.15915 3.6097,-3.93753 9.5406,-9.03967 13.1799,-11.33809 3.6393,-2.29841 9.6027,-5.30525 13.2519,-6.68186 3.6493,-1.37661 9.9372,-3.13697 13.973,-3.91191 4.0359,-0.77495 11.3088,-1.40899 16.1621,-1.40899 4.8532,0 12.1261,0.64562 16.162,1.43471 4.0359,0.78908 10.0336,2.37706 13.3284,3.52884 3.2947,1.15177 8.9513,3.8532 12.5702,6.00318 3.619,2.14997 9.5828,7.09222 13.2529,10.98278 3.9792,4.21815 8.117,9.94102 10.2499,14.17646 1.9673,3.9065 4.4196,10.39763 5.4495,14.42472 1.03,4.0271 2.3741,11.87863 2.9869,17.44784 0.8266,7.51155 0.8216,11.01261 -0.019,13.56055 -0.6234,1.8891 -2.0992,4.11111 -3.2795,4.93782 -1.7227,1.20658 -5.8126,1.5031 -20.7324,1.5031 -13.3223,0 -19.0537,-0.35403 -20.2365,-1.25 -0.9077,-0.6875 -2.0931,-3.275 -2.6344,-5.75 -0.5412,-2.475 -1.4706,-7.83495 -2.0653,-11.91101 -0.5947,-4.07605 -1.9053,-9.27392 -2.9125,-11.5508 -1.0071,-2.27689 -3.2671,-5.77524 -5.0222,-7.77412 -2.047,-2.33143 -5.0177,-4.24105 -8.2865,-5.32678 -3.6653,-1.21743 -6.7468,-1.51989 -10.9785,-1.0776 -3.2355,0.33819 -7.1764,1.28381 -8.7574,2.10138 -1.581,0.81757 -4.534,3.41079 -6.5622,5.76271 -2.0282,2.35192 -4.5877,6.02289 -5.6878,8.1577 -1.1,2.13482 -2.6374,5.95982 -3.4164,8.5 -0.779,2.54019 -1.9152,11.59352 -2.5248,20.11852 -0.6509,9.10314 -0.8888,27.26197 -0.5764,44 0.2925,15.675 1.0156,31.65 1.6068,35.5 0.5911,3.85 2.034,10.03869 3.2064,13.75263 1.3943,4.41708 3.4815,8.28614 6.0343,11.18633 2.1465,2.43853 5.5772,5.46878 7.6238,6.73388 3.0169,1.86496 5.1402,2.30026 11.2215,2.30052 6.126,2.6e-4 8.4168,-0.47567 12.5,-2.59692 3.0128,-1.56516 6.1024,-4.21816 7.7749,-6.67628 1.5265,-2.24347 3.664,-7.55327 4.75,-11.79956 1.0861,-4.24629 1.9746,-9.44854 1.9746,-11.56056 0,-2.50671 0.6945,-4.53448 2,-5.84004 1.8623,-1.8623 3.3333,-2 21.3652,-2 17.7774,0 19.5712,0.16213 21.8791,1.9775 1.3827,1.08762 2.7473,3.19815 3.0325,4.69007 0.2852,1.49192 0.1177,5.66455 -0.3723,9.27251 -0.49,3.60795 -1.6172,9.70992 -2.5049,13.55992 -0.8877,3.85 -3.3335,10.6 -5.4351,15 -2.1016,4.4 -5.7658,10.27833 -8.1428,13.06296 -2.3769,2.78463 -6.3467,6.72755 -8.8217,8.76203 -2.475,2.03449 -7.9307,5.48691 -12.1239,7.67205 -4.1931,2.18513 -11.3931,4.88229 -16,5.99367 -4.6068,1.11139 -12.8761,2.21472 -18.3761,2.45185 -5.5,0.23713 -12.925,0.0442 -16.5,-0.42868 z m -513.72697,-6.71931 c -1.66568,-2.5416 -1.79038,-9.35105 -2.05916,-112.44569 -0.24854,-95.3292 -0.0907,-110.20785 1.20163,-113.30093 0.8869,-2.12265 2.54323,-3.96197 4.10121,-4.55431 1.55649,-0.59178 17.25852,-0.99364 38.8246,-0.99364 19.91613,0 39.83338,0.45419 44.26056,1.00931 4.42717,0.55512 10.71537,1.69434 13.97376,2.53159 3.25839,0.83726 9.20072,3.06747 13.20518,4.95604 4.00445,1.88857 9.77392,5.36185 12.82104,7.71841 3.04711,2.35656 7.57931,6.97802 10.07155,10.26993 2.49223,3.2919 5.60432,8.10271 6.91575,10.69068 1.31142,2.58797 3.39792,8.2196 4.63666,12.51472 1.97214,6.83804 2.25315,10.11025 2.25938,26.30932 0.006,14.78793 -0.35527,19.80424 -1.79891,25 -0.99331,3.575 -3.76938,10.55 -6.16904,15.5 -2.49265,5.14181 -6.55598,11.44496 -9.47855,14.70335 -2.81354,3.13684 -8.44909,7.93297 -12.52345,10.65807 -4.07436,2.7251 -10.01957,5.93625 -13.21159,7.13589 -3.19202,1.19965 -9.62867,3.039 -14.30367,4.08745 -5.44704,1.22159 -14.69877,2.14415 -25.75851,2.56855 -11.02059,0.4229 -17.60348,1.07793 -18.21292,1.81227 -0.5541,0.66764 -1.07482,16.07704 -1.24149,36.73844 -0.26917,33.36797 -0.40594,35.71972 -2.19207,37.69222 -1.82008,2.01 -2.83301,2.10376 -22.72694,2.10376 -20.82196,0 -20.82196,0 -22.59502,-2.70543 z m 79.48484,-120.64181 c 2.85656,-0.74098 6.99087,-2.59265 9.18736,-4.11482 2.19649,-1.52217 5.36548,-4.90544 7.0422,-7.51838 2.24882,-3.50448 3.35939,-6.88328 4.23335,-12.87954 0.8931,-6.12752 0.90863,-10.31653 0.0631,-17.01524 -0.61693,-4.88756 -2.03845,-10.68349 -3.15894,-12.87984 -1.12049,-2.19635 -3.51949,-5.24316 -5.33111,-6.77069 -1.81162,-1.52753 -4.86885,-3.46985 -6.79385,-4.31626 -2.66555,-1.17203 -7.43385,-1.55313 -20,-1.59846 -16.5,-0.0595 -16.5,-0.0595 -16.77955,31.94047 -0.15375,17.6 -0.0327,33.0125 0.26906,34.25 0.53327,2.18715 0.9051,2.25 13.31161,2.25 7.46499,0 14.91899,-0.55925 17.95677,-1.34724 z m 97.54787,120.9347 c -2.80576,-2.41254 -2.80576,-2.41254 -2.80576,-32.25 0,-16.4106 0.1125,-66.87041 0.25,-112.13291 0.25,-82.29546 0.25,-82.29546 2.76163,-84.80709 2.51163,-2.51163 2.51163,-2.51163 23.0718,-2.20455 19.32726,0.28868 20.63082,0.42702 21.73837,2.30709 0.64801,1.1 1.4032,3.125 1.6782,4.5 0.275,1.375 0.275,52.15248 0,112.83884 -0.5,110.33884 -0.5,110.33884 -2.86078,112.25 -2.14224,1.73424 -4.15054,1.91116 -21.69424,1.91116 -18.99346,0 -19.38279,-0.0424 -22.13922,-2.41254 z m 84.09396,1.64723 c -0.6052,-0.40408 -1.6177,-1.71761 -2.25,-2.91895 -0.8464,-1.60795 -1.1497,-31.63256 -1.1497,-113.79545 0,-111.6112 0,-111.6112 2.532,-114.14324 2.532,-2.53203 2.532,-2.53203 21.25,-2.20454 16.6781,0.2918 19.096,0.54956 22.1865,2.36514 2.6242,1.54167 4.5714,4.23075 8,11.04772 2.4923,4.95554 8.6651,17.5386 13.7173,27.96235 5.0522,10.42375 14.6436,30.20228 21.3143,43.95228 6.6706,13.75 13.9648,28.9375 16.2092,33.75 2.2444,4.8125 4.6804,8.75 5.4133,8.75 1.0928,0 1.3817,-11.08432 1.605,-61.58698 0.2724,-61.58697 0.2724,-61.58697 3.1485,-64.0605 2.867,-2.46569 2.9346,-2.47255 21.3387,-2.16303 18.4626,0.31051 18.4626,0.31051 20.8908,3.13597 2.4283,2.82546 2.4283,2.82546 2.1613,114.33676 -0.2669,111.51129 -0.2669,111.51129 -3.0727,113.92454 -2.752,2.36699 -3.1682,2.41324 -21.7152,2.41324 -18.9094,0 -18.9094,0 -22.6323,-3.25 -3.0291,-2.64435 -7.5684,-11.07687 -24.3584,-45.25 -11.3495,-23.1 -24.6225,-50.2125 -29.4956,-60.25 -4.8731,-10.0375 -9.4525,-18.25 -10.1765,-18.25 -1.0737,0 -1.3162,11.06429 -1.3162,60.04966 0,50.74692 -0.2267,60.48795 -1.463,62.87882 -0.8047,1.55604 -2.1915,3.10869 -3.0818,3.45034 -0.8904,0.34165 -9.7945,0.61429 -19.787,0.60587 -9.9925,-0.008 -18.6634,-0.34592 -19.2685,-0.75 z m 371.0093,-0.20702 c -1.15,-0.46506 -2.6193,-2.12403 -3.2652,-3.68661 -0.8804,-2.13027 -1.1078,-30.69627 -0.909,-114.17954 0.2652,-111.33849 0.2652,-111.33849 2.626,-113.25 2.1424,-1.73471 4.1491,-1.91152 21.6942,-1.91152 18.9938,0 19.3827,0.0424 22.1392,2.41266 2.8058,2.41266 2.8058,2.41266 3.0881,44.18643 0.1911,28.28676 0.6342,42.19787 1.3724,43.08734 0.8467,1.02018 6.6322,1.31357 25.9026,1.31357 13.7017,0 25.9611,-0.43671 27.3776,-0.97525 2.5651,-0.97525 2.5651,-0.97525 2.5651,-37.35331 0,-20.00793 0.28,-39.05721 0.6223,-42.33174 0.3422,-3.27452 1.2604,-6.82803 2.0403,-7.89669 1.2885,-1.76535 3.0832,-1.98974 19.6278,-2.45406 13.0393,-0.36595 19.1426,-0.16322 21.4956,0.71401 2.245,0.83698 3.7497,2.33504 4.75,4.72893 1.2547,3.00297 1.464,18.96205 1.464,111.63486 0,95.54082 -0.1803,108.51087 -1.5482,111.39356 -0.8515,1.79442 -2.6727,3.77493 -4.0471,4.40113 -1.5648,0.71299 -9.0469,1.13856 -20.0175,1.13856 -10.6368,0 -18.3118,-0.42445 -19.5376,-1.08049 -1.1104,-0.59427 -2.6558,-2.60482 -3.4343,-4.46788 -1.145,-2.74049 -1.4153,-11.49626 -1.4153,-45.84808 0,-37.2673 -0.1922,-42.6529 -1.5715,-44.03212 -1.3437,-1.34377 -5.1507,-1.57143 -26.2774,-1.57143 -20.7425,0 -25.0627,0.24974 -26.9286,1.5567 -2.2225,1.55671 -2.2225,1.55671 -2.2225,45.86515 0,43.31145 -0.047,44.36772 -2.0726,46.94329 -2.0726,2.63486 -2.0726,2.63486 -21.75,2.57147 -10.8226,-0.0349 -20.6184,-0.44388 -21.7684,-0.90894 z m 17.591,-259.31577 c -1.5654,-0.78809 -4.6691,-5.17531 -8.3019,-11.73526 -3.1911,-5.76215 -7.8262,-13.54271 -10.3002,-17.29013 -2.4741,-3.74742 -7.8973,-10.37117 -12.0516,-14.71943 -4.1543,-4.34827 -11.3817,-11.18219 -16.0609,-15.18651 -4.6792,-4.00431 -11.4119,-10.88057 -14.9615,-15.28057 -3.5496,-4.4 -8.8241,-11.825 -11.7211,-16.5 -2.897,-4.675 -7.7052,-13.11235 -10.685,-18.74966 -2.9798,-5.63732 -5.7553,-10.24982 -6.1678,-10.25 -0.4125,-1.9e-4 -0.75,0.47327 -0.75,1.05212 0,0.57885 -4.1539,11.26635 -9.2308,23.75 -9.2307,22.69754 -9.2307,22.69754 -9.5697,53.69754 -0.2769,25.32029 -0.6086,31.36643 -1.8102,33 -1.3098,1.7807 -2.8481,2.03659 -14.0288,2.33365 -6.9068,0.18352 -13.6302,0.0645 -14.941,-0.26448 -1.3107,-0.32898 -3.0663,-1.91928 -3.9013,-3.534 -1.2595,-2.43548 -1.5182,-8.09217 -1.5182,-33.18988 0,-30.25403 0,-30.25403 -6.4496,-44.79966 -3.5473,-8.0001 -10.3369,-24.44563 -15.0879,-36.54563 -4.7511,-12.1 -10.8488,-27.71751 -13.5504,-34.70558 -2.7017,-6.98806 -4.9121,-13.76456 -4.9121,-15.05887 0,-1.29431 0.6385,-3.2268 1.4188,-4.29442 1.2543,-1.71596 2.9418,-1.98192 14.5475,-2.29278 8.4308,-0.22581 14.0957,0.0596 15.8312,0.79768 1.4863,0.63213 3.4045,2.14037 4.2626,3.35165 0.858,1.21128 3.5109,7.82732 5.8953,14.70232 2.3843,6.875 7.0009,19.7 10.2589,28.5 3.2581,8.8 6.3352,16.42 6.8381,16.93333 0.5028,0.51334 1.1523,0.69531 1.4432,0.40438 0.2909,-0.29092 4.1234,-10.97816 8.5167,-23.7494 4.3932,-12.77125 7.9877,-24.7129 7.9877,-26.53701 0,-1.8241 -2.0324,-8.34149 -4.5163,-14.48308 -2.484,-6.14159 -6.9806,-15.98191 -9.9925,-21.86738 -3.012,-5.88546 -6.9336,-13.39809 -8.7148,-16.69473 -2.5024,-4.63126 -3.3132,-7.47295 -3.5667,-12.5 -0.2519,-4.99697 0.119,-7.31796 1.5991,-10.00611 1.2047,-2.18784 3.6977,-4.41167 6.6499,-5.93175 4.7227,-2.43176 4.7227,-2.43176 1.382,-4.14906 -1.8374,-0.94452 -5.497,-3.61753 -8.1325,-5.94003 -2.6355,-2.32251 -5.673,-5.95 -6.75,-8.06111 -1.1403,-2.23505 -1.9567,-5.83913 -1.9545,-8.62821 0,-3.04672 0.742,-6.00074 2.0324,-8.11723 1.4148,-2.32063 3.9099,-4.16861 8.2462,-6.10765 3.4197,-1.52915 9.9639,-3.7755 14.5426,-4.9919 4.5787,-1.21641 15.1644,-3.50053 23.5238,-5.07583 8.3594,-1.5753 20.0257,-3.38387 25.9251,-4.01903 7.9682,-0.85791 13.3617,-0.86964 20.9762,-0.0456 5.6375,0.61008 13.0315,1.9777 16.4311,3.03916 3.3996,1.06145 9.0246,3.35165 12.5,5.08933 3.4754,1.73768 7.8109,4.28025 9.6346,5.65016 1.8236,1.3699 3.5749,2.23149 3.8917,1.91463 0.3169,-0.31686 -0.2199,-4.52481 -1.1928,-9.35099 -0.9729,-4.82618 -1.9938,-12.85673 -2.2686,-17.84566 -0.3497,-6.3464 0.012,-11.60248 1.2053,-17.5 0.9483,-4.68823 3.1043,-11.05749 4.8579,-14.35125 1.734,-3.25712 5.3194,-8.05472 7.9675,-10.66134 2.648,-2.60662 6.7257,-5.63764 9.0615,-6.73559 2.3358,-1.09796 6.2528,-2.25493 8.7044,-2.57105 2.532,-0.3265 5.9692,-0.0424 7.9574,0.65762 2.5876,0.91112 4.0865,2.39557 5.75,5.69428 1.2375,2.45404 2.2491,5.82904 2.2479,7.5 -10e-4,1.67096 0.7206,6.97533 1.6038,11.78748 1.6058,8.74937 1.6058,8.74937 6.5078,4.34202 2.6962,-2.42403 7.0046,-5.12375 9.5744,-5.99936 2.5698,-0.87562 6.5047,-1.5854 8.7442,-1.57729 2.2395,0.008 5.1834,0.57717 6.5419,1.26457 1.3585,0.68741 3.4289,2.67281 4.6009,4.41202 1.2553,1.86264 2.6296,6.37729 3.3442,10.98543 0.6673,4.30278 2.5793,15.24824 4.249,24.32324 1.6696,9.075 3.1808,16.65252 3.3581,16.83893 0.1772,0.18641 2.0071,-1.52599 4.0664,-3.80534 2.0592,-2.27935 5.5817,-5.21707 7.8277,-6.52827 2.246,-1.3112 6.411,-2.68961 9.2556,-3.06313 3.0824,-0.40476 7.2264,-0.18627 10.2572,0.54082 3.2672,0.78377 5.7978,2.12572 7.0781,3.75333 1.4232,1.80923 1.9928,4.05402 1.9928,7.85326 0,2.92594 -2.2781,16.92776 -5.0625,31.11515 -2.7844,14.18738 -8.6635,42.89524 -13.0648,63.79524 -4.4012,20.9 -10.242,47.45 -12.9795,59 -2.7375,11.55 -6.1242,26.4 -7.5259,33 -1.8505,8.7126 -2.4305,13.94819 -2.1171,19.11148 0.3146,5.18296 1.258,8.87752 3.4791,13.62376 1.6761,3.58175 6.5402,12.08158 10.809,18.88851 5.3615,8.54906 7.9,13.6132 8.2092,16.37625 0.3371,3.01321 -0.066,4.65069 -1.6342,6.63762 -1.1449,1.45069 -3.2462,2.92989 -4.6694,3.28711 -1.7672,0.44353 -3.6548,-0.01 -5.9527,-1.43018 -1.8508,-1.14381 -5.539,-5.09801 -8.1962,-8.78711 -2.6572,-3.68909 -5.7861,-8.08488 -6.9533,-9.76842 -1.1671,-1.68353 -3.4586,-5.73353 -5.092,-9 -1.6335,-3.26646 -4.0454,-9.08902 -5.3598,-12.93902 -2.0784,-6.08756 -2.3799,-8.7597 -2.3132,-20.5 0.074,-13.05174 0.3004,-14.44632 6.8153,-42 3.7062,-15.675 7.4358,-33.2831 8.2878,-39.12911 1.4129,-9.69439 1.4066,-11.40923 -0.072,-19.5 -0.8916,-4.87899 -3.6513,-22.82089 -6.1328,-39.87089 -2.4815,-17.05 -5.1911,-35.05 -6.0212,-40 -0.8302,-4.95 -3.5918,-20.25 -6.1369,-34 -2.5451,-13.75 -4.7844,-25.18927 -4.9762,-25.42061 -0.1918,-0.23134 -1.5158,0.66866 -2.9421,2 -1.4264,1.33134 -3.3947,3.99561 -4.3741,5.92061 -0.9793,1.925 -2.1002,4.98049 -2.4909,6.78998 -0.3906,1.80948 -0.6994,6.30948 -0.6861,10 0.013,3.69051 0.7377,10.04805 1.6098,14.12785 0.8721,4.07981 3.5827,13.97981 6.0236,22 2.4409,8.0202 6.8712,21.55717 9.8452,30.08217 2.9739,8.525 7.0421,19.70766 9.0404,24.85035 1.9984,5.1427 3.6333,10.23981 3.6333,11.32693 0,1.08711 -1.3154,3.29195 -2.9231,4.89964 -1.8441,1.8442 -3.9664,2.92611 -5.75,2.93128 -2.241,0.007 -4.4847,-1.71828 -10.8269,-8.32296 -4.4,-4.58213 -12.725,-12.32884 -18.5,-17.2149 -5.775,-4.88606 -13.425,-11.57245 -17,-14.85864 -3.575,-3.2862 -13.7,-13.02707 -22.5,-21.64638 -8.8,-8.61931 -18.5616,-17.72726 -21.6925,-20.23988 -3.1309,-2.51263 -8.568,-5.94077 -12.0826,-7.61811 -3.7507,-1.79005 -10.2799,-3.72326 -15.8075,-4.68042 -6.5396,-1.1324 -11.862,-1.4312 -17.4174,-0.97782 -4.4,0.35909 -15.2,1.76016 -24,3.11349 -8.8,1.35333 -20.1815,3.52443 -25.2923,4.82466 -5.1108,1.30023 -9.5948,2.6666 -9.9646,3.03637 -0.3698,0.36978 -0.1938,1.43823 0.391,2.37435 0.5848,0.93612 3.6861,3.05204 6.8917,4.70204 5.6098,2.88757 6.3182,2.99923 18.9013,2.97947 7.1901,-0.0113 19.5979,-0.23629 27.5729,-0.5 12.5847,-0.41614 15.2265,-0.22349 20,1.45844 4.6973,1.65507 7.3454,3.80043 18.1441,14.69917 6.9543,7.01869 15.4487,16.49663 18.8765,21.06209 3.4277,4.56546 7.8629,11.67583 9.8559,15.80083 3.4585,7.15834 3.6235,7.97832 3.6235,18 0,9.22711 -0.316,11.17392 -2.6073,16.0591 -1.434,3.0575 -5.034,8.0118 -8,11.00955 -3.0009,3.0331 -8.0073,6.71111 -11.288,8.29287 -5.1338,2.4753 -6.8136,2.79603 -13.0055,2.48335 -5.3718,-0.27126 -8.514,-1.0693 -12.8518,-3.26401 -3.283,-1.66105 -8.2398,-5.51185 -11.5758,-8.99292 -4.6966,-4.90093 -7.2189,-8.95542 -12.9362,-20.7947 -3.9062,-8.08873 -8.878,-17.31373 -11.0486,-20.5 -2.1705,-3.18628 -6.6777,-8.3909 -10.016,-11.56582 -3.3383,-3.17491 -8.4549,-6.88302 -11.3702,-8.24023 -2.9572,-1.3767 -7.1534,-2.47197 -9.4916,-2.47742 -2.305,-0.005 -4.435,0.38509 -4.7332,0.86769 -0.2983,0.48261 1.8345,4.87011 4.7395,9.75 2.905,4.8799 7.1362,12.92254 9.4027,17.87254 2.2664,4.95 7.4877,17.325 11.6027,27.5 4.1151,10.175 9.5856,23.675 12.1567,30 2.5711,6.325 7.5106,17.41141 10.9768,24.63647 3.4661,7.22506 8.4375,16.43757 11.0475,20.47225 2.6101,4.03468 7.2231,10.34738 10.2512,14.02821 3.0281,3.68084 9.4839,10.15832 14.3463,14.39441 4.8623,4.23609 12.5983,11.60001 17.1911,16.36427 4.5927,4.76426 10.6255,12.03376 13.4061,16.15445 2.7806,4.12068 7.3615,12.08698 10.1796,17.70288 3.0925,6.16243 5.1152,11.50647 5.1018,13.47889 -0.012,1.79749 -0.7997,4.228 -1.75,5.40113 -0.9503,1.17313 -2.7107,2.63563 -3.912,3.25 -1.2014,0.61437 -2.7764,1.11041 -3.5,1.1023 -0.7237,-0.008 -2.4408,-0.58112 -3.8158,-1.27336 z m -24.1827,-176.74189 c 2.1913,-1.33597 4.1858,-3.91949 5.8757,-7.61077 2.0935,-4.57274 2.4493,-6.50987 1.9578,-10.65983 -0.3304,-2.78937 -1.8226,-7.4866 -3.316,-10.43829 -1.4934,-2.95169 -6.395,-9.95545 -10.8924,-15.56391 -4.4974,-5.60847 -11.8041,-13.65819 -16.2371,-17.88827 -6.0279,-5.75196 -8.9969,-7.86682 -11.776,-8.38818 -2.0438,-0.38342 -8.939,-0.38539 -15.3227,-0.004 -6.3836,0.38102 -13.5374,0.95687 -15.8971,1.27967 -4.2905,0.5869 -4.2905,0.5869 1,3.58266 2.9097,1.64766 8.4405,6.23615 12.2905,10.19663 3.85,3.96048 9.0733,10.76123 11.6074,15.11277 2.5341,4.35154 5.3312,9.26189 6.2157,10.91189 0.8846,1.65 3.4498,6.825 5.7006,11.5 2.2508,4.675 5.7538,10.24115 7.7843,12.36923 2.0306,2.12808 5.042,4.7139 6.692,5.74626 1.65,1.03237 4.8,1.87703 7,1.87703 2.2547,0 5.4474,-0.88247 7.3173,-2.02251 z m 124.7629,-57.16791 c 1.2931,-6.76616 3.7532,-19.878 5.4668,-29.13743 1.7136,-9.25943 2.9115,-17.03947 2.662,-17.28897 -0.2495,-0.24949 -2.5119,1.83567 -5.0276,4.6337 -2.5156,2.79804 -5.5815,7.65307 -6.8131,10.78897 -1.7093,4.35254 -2.2508,7.83116 -2.2882,14.70163 -0.027,4.95 0.5884,13.6056 1.3674,19.23467 0.7791,5.62907 1.6111,10.04002 1.849,9.8021 0.238,-0.23792 1.4906,-5.96852 2.7837,-12.73467 z m -57.0557,-16.97541 c -2.525,-7.87968 -7.2475,-25.12669 -10.4944,-38.32669 -3.2469,-13.2 -7.3271,-31.2 -9.0672,-40 -1.7401,-8.8 -3.3484,-16.19219 -3.5738,-16.4271 -0.2255,-0.2349 -1.8138,0.8901 -3.5296,2.5 -1.7157,1.60991 -4.0293,4.94638 -5.1413,7.41439 -1.3621,3.02313 -2.1721,7.42803 -2.4826,13.5 -0.3295,6.44261 0.1475,12.5767 1.6726,21.51075 1.1734,6.87392 3.4866,17.83307 5.1405,24.35366 1.6539,6.52059 3.6538,13.10623 4.4443,14.63476 0.7904,1.52853 7.1903,8.22067 14.2221,14.87142 7.0317,6.65075 12.9234,11.688 13.0926,11.19388 0.1693,-0.49411 -1.7581,-7.3454 -4.2832,-15.22507 z m -418.1927,245.75873 c -3.9425,-0.75192 -10.555,-2.99615 -14.6945,-4.98718 -4.2916,-2.06416 -9.6333,-5.67225 -12.4285,-8.39485 -2.85173,-2.77766 -6.18542,-7.47858 -7.97029,-11.23909 -1.6875,-3.55537 -3.59163,-9.1643 -4.2314,-12.4643 -0.63977,-3.3 -1.0156,-7.78965 -0.83518,-9.97701 0.25235,-3.05933 0.90491,-4.26734 2.82805,-5.23526 1.58898,-0.79973 6.88294,-1.26362 14.52752,-1.27299 8.9991,-0.011 12.5575,0.35652 14.1326,1.45976 1.3238,0.92721 2.3454,3.06142 2.7525,5.75 0.3561,2.35152 1.6483,6.0755 2.8715,8.2755 1.4706,2.64485 3.7343,4.76227 6.6819,6.25 2.4518,1.2375 6.2921,2.25 8.534,2.25 2.2419,0 6.084,-1.0125 8.5381,-2.25 3.2595,-1.64369 5.0682,-3.45234 6.7119,-6.71189 1.2375,-2.45404 2.2475,-5.60404 2.2444,-7 0,-1.39596 -0.4905,-4.28443 -1.0831,-6.41883 -0.6532,-2.35244 -2.9154,-5.71442 -5.7444,-8.53703 -2.5668,-2.56098 -10.711,-8.39821 -18.0981,-12.97162 -7.3872,-4.57341 -15.7295,-10.01311 -18.5385,-12.08821 -2.8089,-2.07511 -7.4328,-6.14787 -10.2752,-9.05059 -2.9712,-3.03431 -6.63553,-8.29442 -8.62055,-12.37475 -1.89894,-3.9034 -3.94355,-9.48173 -4.54359,-12.3963 -0.60004,-2.91457 -1.09098,-7.88253 -1.09098,-11.0399 0,-3.15738 0.69429,-8.42273 1.54286,-11.70078 0.84857,-3.27806 2.5091,-7.9851 3.69007,-10.4601 1.18096,-2.475 4.87418,-7.23098 8.20709,-10.56885 3.3393,-3.3442 8.5292,-7.26108 11.56,-8.72439 3.025,-1.46055 8.425,-3.40863 12,-4.32907 3.8635,-0.99471 10.1869,-1.65364 15.5896,-1.62451 4.9993,0.0269 11.927,0.7759 15.3948,1.66432 3.4679,0.88843 8.5488,2.83643 11.2909,4.32889 2.7422,1.49247 6.7216,4.29758 8.8432,6.23359 2.1215,1.93601 5.4113,6.14951 7.3105,9.36333 1.8992,3.21381 4.1546,8.92765 5.012,12.6974 0.8575,3.76976 1.559,8.83054 1.559,11.24618 0,3.7361 -0.3804,4.56541 -2.5471,5.55259 -1.5435,0.7033 -8.0367,1.16052 -16.4809,1.16052 -13.9339,0 -13.9339,0 -14.5533,-2.75 -0.3406,-1.5125 -1.036,-4.41704 -1.5453,-6.45453 -0.5093,-2.03749 -2.1307,-5.13618 -3.603,-6.88598 -1.4724,-1.74979 -4.1461,-3.79525 -5.9416,-4.54546 -1.7955,-0.75022 -4.8685,-1.36403 -6.8288,-1.36403 -1.9604,0 -5.0579,0.62409 -6.8835,1.38686 -1.8256,0.76277 -4.3054,2.77187 -5.5108,4.46466 -1.2054,1.69279 -2.4499,5.25854 -2.7655,7.92388 -0.4458,3.76355 -0.103,5.76932 1.5345,8.97905 1.1597,2.27314 3.7998,5.78546 5.8669,7.80516 2.0671,2.01971 6.2334,5.32288 9.2584,7.34039 3.025,2.01751 10.225,6.4833 16,9.92397 5.775,3.44067 13.7887,8.97003 17.8082,12.28748 4.0195,3.31744 8.7793,8.362 10.5772,11.21013 1.798,2.84813 4.0806,7.20342 5.0725,9.67842 1.0991,2.74234 1.9977,8.26221 2.3008,14.13212 0.3115,6.03251 0.024,11.63814 -0.7692,15 -0.6966,2.95233 -2.7477,8.33153 -4.5579,11.95378 -1.8836,3.76878 -5.4738,8.6879 -8.3933,11.5 -2.806,2.70275 -7.225,6.15687 -9.82,7.67581 -2.5951,1.51894 -7.613,3.66718 -11.1509,4.77387 -3.538,1.10668 -10.288,2.21574 -15,2.46456 -5.0645,0.26744 -11.4983,-0.10657 -15.7356,-0.91472 z m -236.01645,-1.5924 c -1.20154,-0.48411 -2.66404,-1.77601 -3.25,-2.87087 -0.72241,-1.34985 -1.0703,-23.1776 -1.08068,-67.80641 -0.009,-40.0829 -0.38882,-66.40221 -0.97062,-67.31574 -0.7842,-1.23133 -3.21228,-1.44554 -13.55595,-1.19597 -7.58037,0.18291 -13.97363,-0.14909 -16.04677,-0.83329 -2.18563,-0.72132 -4.03193,-2.27014 -5.04767,-4.23436 -1.28088,-2.47693 -1.51476,-5.36436 -1.1681,-14.42083 0.37002,-9.66703 0.71144,-11.52707 2.33351,-12.71316 1.04503,-0.76415 3.89131,-1.6623 6.32506,-1.99588 2.43375,-0.33358 23.82469,-0.604 47.53542,-0.60093 26.7121,0.003 44.53238,0.40048 46.84866,1.04375 2.05603,0.571 4.19353,1.88891 4.75,2.92868 0.55647,1.03978 1.01177,7.12467 1.01177,13.52199 0,6.39732 -0.4553,12.48221 -1.01177,13.52199 -0.55647,1.03977 -2.69397,2.35768 -4.75,2.92868 -2.05603,0.571 -9.47573,1.04069 -16.48823,1.04375 -12.75,0.006 -12.75,0.006 -12.75,67.55103 0,67.54546 0,67.54546 -2.45455,70 -2.35812,2.35813 -2.9572,2.45206 -15.25,2.39116 -7.0375,-0.0349 -13.77853,-0.45948 -14.98008,-0.94359 z m 65.68463,-0.99302 c -1.1,-1.1 -2,-3.06496 -2,-4.36657 0,-1.30162 3.83882,-18.51412 8.5307,-38.25 4.69189,-19.73589 10.75635,-45.10843 13.47657,-56.38343 2.72023,-11.275 7.49467,-31.06605 10.60988,-43.98011 5.05885,-20.97146 5.97305,-23.7688 8.55659,-26.18218 2.05421,-1.91892 4.40461,-2.88716 8.10942,-3.34063 2.86926,-0.3512 11.15503,-0.48299 18.41283,-0.29287 12.41063,0.3251 13.35565,0.49298 15.87887,2.82073 1.4756,1.36128 3.26791,3.84653 3.98292,5.52278 0.71501,1.67624 3.5329,12.47624 6.26197,24 2.72908,11.52375 8.15843,34.45228 12.06524,50.95228 3.90681,16.5 9.1429,38.325 11.63576,48.5 2.49287,10.175 5.4205,22.43274 6.50587,27.23941 1.08536,4.80668 1.97338,9.21463 1.97338,9.79546 0,0.58082 -1.10455,2.16058 -2.45455,3.51058 -2.34383,2.34383 -3.01748,2.45455 -14.9349,2.45455 -6.86419,0 -13.61111,-0.42991 -14.99315,-0.95537 -1.38204,-0.52545 -3.21048,-2.02015 -4.06319,-3.32155 -0.85272,-1.30141 -2.63997,-7.83077 -3.97168,-14.50969 -1.33171,-6.67891 -2.70913,-12.60921 -3.06093,-13.17844 -0.40402,-0.65373 -7.54611,-1.03495 -19.38949,-1.03495 -13.4619,0 -19.2106,0.35253 -20.38356,1.25 -1.08189,0.82778 -2.50395,5.80994 -4.2101,14.75 -1.99354,10.44596 -3.0496,13.89589 -4.6682,15.25 -1.77179,1.48226 -4.21676,1.75 -15.98103,1.75 -12.55589,0 -14.08122,-0.192 -15.88922,-2 z m 72.41821,-59.60699 c 0.86999,-0.33384 1.58179,-1.54017 1.58179,-2.68072 0,-1.14055 -1.35967,-9.3049 -3.02148,-18.14301 -1.66182,-8.8381 -3.69487,-19.66928 -4.5179,-24.06928 -0.82303,-4.4 -2.22086,-11.15 -3.10628,-15 -0.88543,-3.85 -1.95737,-7.38249 -2.38208,-7.84998 -0.42472,-0.46748 -1.53865,1.78252 -2.47542,5 -0.93676,3.21749 -3.90097,16.87498 -6.58714,30.34998 -2.68617,13.475 -4.88974,26.15899 -4.89682,28.18664 -0.0119,3.41318 0.22819,3.71656 3.23712,4.08996 1.7875,0.22183 7.1507,0.47534 11.91821,0.56336 4.76752,0.088 9.38002,-0.1131 10.25,-0.44695 z m 208.58181,59.85544 c -3.5,-1.74845 -3.5,-1.74845 -3.7569,-69.87763 -0.2569,-68.12917 -0.2569,-68.12917 -15.6877,-68.85236 -12.7054,-0.59546 -15.7055,-1.02678 -16.9863,-2.44209 -1.1968,-1.32245 -1.6021,-4.47016 -1.7571,-13.64764 -0.1316,-7.79016 0.217,-12.69417 1.005,-14.13498 0.667,-1.21969 2.8781,-2.67048 4.9447,-3.24442 2.3141,-0.64264 19.9302,-1.03818 46.2383,-1.03818 25.1195,0 43.9645,0.40684 46.0812,0.99483 2.2211,0.61699 4.1201,2.0017 5,3.64581 0.9769,1.82536 1.4188,6.05664 1.4188,13.58618 0,10.74188 -0.05,10.97786 -2.8058,13.34861 -2.5312,2.17728 -3.7162,2.41342 -12.1104,2.41342 -5.1176,0 -11.3925,0.28617 -13.9443,0.63592 -4.6395,0.63593 -4.6395,0.63593 -4.6831,64.25 -0.024,34.98775 -0.4311,65.62275 -0.9048,68.07779 -0.5044,2.61447 -1.7751,5.20373 -3.0672,6.25 -1.8359,1.48662 -4.1586,1.78603 -13.8452,1.78474 -9.0775,-10e-4 -12.4095,-0.38638 -15.1392,-1.75 z m 68.0511,-206.1973 c -1.1847,-1.18474 -2.0511,-3.35875 -2.0511,-5.14678 0,-1.7026 0.9539,-4.43533 2.1199,-6.07274 1.1659,-1.6374 5.5502,-5.90406 9.7429,-9.48144 4.4521,-3.79877 11.3881,-8.37344 16.6745,-10.99774 6.4797,-3.21667 10.4201,-4.54441 13.8683,-4.67293 4.2073,-0.15681 5.0847,0.1742 6.935,2.61631 1.9541,2.57907 2.0017,3.00357 0.6143,5.47544 -0.8272,1.47379 -2.618,3.21456 -3.9795,3.86839 -1.3615,0.65383 -5.8504,2.77443 -9.9754,4.71245 -4.125,1.93802 -9.143,4.78912 -11.1511,6.33578 -2.0081,1.54666 -6.5081,5.3421 -10,8.4343 -3.4919,3.0922 -7.3384,5.92772 -8.5478,6.30115 -1.5356,0.47416 -2.8175,0.0603 -4.25,-1.37219 z"
       id="path2" />
  </g>
</svg>
